<svg width="114" height="114" viewBox="0 0 114 114" fill="none" xmlns="http://www.w3.org/2000/svg">
<g filter="url(#filter0_b)">
<path d="M1 17C1 8.16344 8.16344 1 17 1L97 1C105.837 1 113 8.16344 113 17V97C113 105.837 105.837 113 97 113H17C8.16344 113 1 105.837 1 97L1 17Z" fill="url(#paint0_linear)" fill-opacity="0.5"/>
<path d="M17 0.5C7.8873 0.5 0.5 7.8873 0.5 17L0.5 97C0.5 106.113 7.8873 113.5 17 113.5H97C106.113 113.5 113.5 106.113 113.5 97V17C113.5 7.8873 106.113 0.5 97 0.5L17 0.5Z" stroke="url(#paint1_radial)"/>
<path d="M17 0.5C7.8873 0.5 0.5 7.8873 0.5 17L0.5 97C0.5 106.113 7.8873 113.5 17 113.5H97C106.113 113.5 113.5 106.113 113.5 97V17C113.5 7.8873 106.113 0.5 97 0.5L17 0.5Z" stroke="url(#paint2_radial)"/>
<path d="M17 0.5C7.8873 0.5 0.5 7.8873 0.5 17L0.5 97C0.5 106.113 7.8873 113.5 17 113.5H97C106.113 113.5 113.5 106.113 113.5 97V17C113.5 7.8873 106.113 0.5 97 0.5L17 0.5Z" stroke="url(#paint3_radial)"/>
</g>
<defs>
<filter id="filter0_b" x="-42" y="-42" width="198" height="198" filterUnits="userSpaceOnUse" color-interpolation-filters="sRGB">
<feFlood flood-opacity="0" result="BackgroundImageFix"/>
<feGaussianBlur in="BackgroundImage" stdDeviation="21"/>
<feComposite in2="SourceAlpha" operator="in" result="effect1_backgroundBlur"/>
<feBlend mode="normal" in="SourceGraphic" in2="effect1_backgroundBlur" result="shape"/>
</filter>
<linearGradient id="paint0_linear" x1="-13" y1="-27" x2="55.4732" y2="107.208" gradientUnits="userSpaceOnUse">
<stop stop-color="white" stop-opacity="0.4"/>
<stop offset="1" stop-color="white" stop-opacity="0"/>
</linearGradient>
<radialGradient id="paint1_radial" cx="0" cy="0" r="1" gradientUnits="userSpaceOnUse" gradientTransform="translate(43 29) rotate(-132.581) scale(105.606 81.9245)">
<stop stop-color="white"/>
<stop offset="1" stop-color="white" stop-opacity="0"/>
</radialGradient>
<radialGradient id="paint2_radial" cx="0" cy="0" r="1" gradientUnits="userSpaceOnUse" gradientTransform="translate(43 29) rotate(40.6798) scale(88.6118 63.6508)">
<stop stop-color="#17B384"/>
<stop offset="1" stop-color="#17B384" stop-opacity="0"/>
</radialGradient>
<radialGradient id="paint3_radial" cx="0" cy="0" r="1" gradientUnits="userSpaceOnUse" gradientTransform="translate(43 29) rotate(135.957) scale(85.3851 63.7764)">
<stop stop-color="#151515"/>
<stop offset="1" stop-color="#151515" stop-opacity="0"/>
</radialGradient>
</defs>
</svg>
